<?xml version="1.0" encoding="utf-8"?>
<!-- Generator: Adobe Illustrator 21.1.0, SVG Export Plug-In . SVG Version: 6.00 Build 0)  -->
<svg version="1.1" id="Layer_1" xmlns="http://www.w3.org/2000/svg" xmlns:xlink="http://www.w3.org/1999/xlink" x="0px" y="0px"
	 viewBox="0 0 220.7 132.5" enable-background="new 0 0 220.7 132.5" xml:space="preserve">
<title>logo</title>
<path fill="#3B8558" d="M147.7,103.2h58.1c-22.1-17.2-44.9-28.3-68.2-33.3C137.5,81.7,141.7,92.7,147.7,103.2z"/>
<path fill="#3B8558" d="M65.4,73.2c-20.9,6.4-40.4,16.6-57.6,30h56.9c5.8-10.3,10-21.1,10.2-32.5C71.7,71.4,68.5,72.3,65.4,73.2z"/>
<path fill="#3B8558" d="M126.5,68c-4.7-0.6-9.4-1-14.1-1.1v36.4h22.8C129.7,92.3,126.1,80.7,126.5,68z"/>
<path fill="#3B8558" d="M184.9,37.4c-0.2-0.1-20.3-6.9-34,1.8c-6.2,3.9-10.3,10.6-12.2,19.9c22.3,4.6,46.5,14.8,71.5,33.7
	c-2.2-21-10.9-40.9-24.7-56.8L184.9,37.4z"/>
<path fill="#3B8558" d="M61.4,39.2c-13.7-8.6-33.8-1.8-34-1.8l-0.1-0.3C14.1,52.8,5.9,72,3.7,92.4c17.6-13.3,37.5-23.3,58.6-29.8
	c3.7-1.1,7.5-2.1,11.6-3C71.9,50,67.7,43.2,61.4,39.2z"/>
<path fill="#3B8558" d="M67.3,29.8c9.1,5.7,14.9,15,17.4,27.8c5.5-0.8,11.1-1.4,16.7-1.6V0C79.1,1.2,57.7,9.5,40.6,23.9
	C48.8,23.4,58.7,24.4,67.3,29.8z"/>
<path fill="#3B8558" d="M127.8,57.2c2.5-12.6,8.3-21.8,17.3-27.4c9.1-5.8,19.8-6.5,28.3-5.8C156.2,9.6,134.8,1.2,112.4,0v56
	C117.6,56.1,122.7,56.6,127.8,57.2z"/>
<path fill="#3B8558" d="M85.9,68.5c0.3,12.5-3.3,24-8.7,34.7h24.2V66.9C96.2,67.2,91,67.7,85.9,68.5z"/>
<path fill="#D9DADC" d="M22.9,132.2h-5.1v-11.8H5.1v11.8H0v-27.1h5.1v11.7h12.7v-11.7h5.1V132.2z"/>
<path fill="#D9DADC" d="M52.1,118.7c0,1.9-0.3,3.8-1,5.5c-0.6,1.6-1.6,3.1-2.8,4.4c-1.2,1.3-2.7,2.2-4.3,2.9
	c-3.6,1.4-7.6,1.4-11.2,0c-1.6-0.7-3.1-1.6-4.4-2.9c-1.2-1.3-2.2-2.8-2.8-4.4c-1.3-3.5-1.3-7.5,0-11c0.6-1.6,1.6-3.1,2.8-4.4
	c1.2-1.3,2.7-2.2,4.4-2.9c1.8-0.7,3.7-1,5.6-1c1.9-0.1,3.8,0.3,5.6,1c1.6,0.7,3.1,1.6,4.3,2.9c1.2,1.3,2.2,2.8,2.8,4.4
	C51.8,114.9,52.1,116.8,52.1,118.7z M46.9,118.7c0-1.4-0.2-2.7-0.6-4c-0.4-1.1-0.9-2.1-1.7-3c-0.7-0.8-1.6-1.5-2.6-1.9
	c-2.3-0.9-4.9-0.9-7.2,0c-1,0.4-2,1.1-2.7,1.9c-0.8,0.9-1.4,1.9-1.7,3c-0.8,2.6-0.8,5.4,0,8c0.4,1.1,0.9,2.1,1.7,3
	c0.7,0.8,1.7,1.5,2.7,1.9c2.3,0.9,4.9,0.9,7.2,0c1-0.4,1.9-1.1,2.7-1.9c0.8-0.9,1.3-1.9,1.7-3C46.8,121.4,47,120,46.9,118.7z"/>
<path fill="#D9DADC" d="M51.3,105.1h4.2c0.4,0,0.8,0.1,1.1,0.3c0.3,0.2,0.5,0.5,0.6,0.8l4.6,16.2c0.1,0.4,0.2,0.8,0.3,1.3
	s0.2,1,0.3,1.5c0.1-0.5,0.2-1,0.3-1.5c0.1-0.5,0.2-0.9,0.4-1.3l5.3-16.2c0.1-0.3,0.3-0.6,0.6-0.8c0.3-0.2,0.7-0.4,1.1-0.4h1.5
	c0.4,0,0.8,0.1,1.1,0.3c0.3,0.2,0.5,0.5,0.6,0.8l5.3,16.2c0.3,0.9,0.5,1.8,0.7,2.7c0.1-0.5,0.2-1,0.3-1.4c0.1-0.5,0.2-0.9,0.3-1.3
	l4.6-16.2c0.1-0.3,0.3-0.6,0.6-0.8c0.3-0.2,0.7-0.4,1.1-0.3h4l-8.4,27.1h-4.6l-5.9-18.5l-0.2-0.8c-0.1-0.3-0.2-0.6-0.2-0.9
	c-0.1,0.3-0.2,0.6-0.2,0.9l-0.2,0.8l-6,18.5h-4.6L51.3,105.1z"/>
<path fill="#D9DADC" d="M103.2,105v2h-4.1v11.5h-2.5V107h-4.1v-2H103.2z"/>
<path fill="#D9DADC" d="M116,111.7c0,0.9-0.2,1.9-0.5,2.8c-0.3,0.8-0.8,1.6-1.4,2.2c-0.6,0.6-1.4,1.1-2.2,1.4
	c-1.8,0.7-3.8,0.7-5.6,0c-0.8-0.3-1.6-0.8-2.2-1.4c-0.6-0.6-1.1-1.4-1.4-2.2c-0.7-1.8-0.7-3.7,0-5.5c0.3-0.8,0.8-1.6,1.4-2.2
	c0.6-0.6,1.4-1.1,2.2-1.4c0.9-0.4,1.8-0.5,2.8-0.5c1,0,1.9,0.2,2.8,0.5c0.8,0.3,1.6,0.8,2.2,1.4c0.6,0.6,1.1,1.4,1.4,2.2
	C115.8,109.9,116,110.8,116,111.7z M113.4,111.7c0-0.7-0.1-1.4-0.3-2c-0.2-0.6-0.5-1.1-0.8-1.5c-0.4-0.4-0.8-0.7-1.3-0.9
	c-1.2-0.4-2.4-0.4-3.6,0c-0.5,0.2-1,0.5-1.4,0.9c-0.4,0.4-0.7,1-0.9,1.5c-0.4,1.3-0.4,2.7,0,4c0.2,0.6,0.5,1.1,0.9,1.5
	c0.4,0.4,0.8,0.7,1.4,0.9c1.2,0.4,2.4,0.4,3.6,0c0.5-0.2,1-0.5,1.3-0.9c0.4-0.4,0.7-0.9,0.8-1.5
	C113.3,113.1,113.4,112.4,113.4,111.7L113.4,111.7z"/>
<path fill="#D9DADC" d="M143.2,132.1h-5.1v-11.8h-12.7v11.8h-5.1V105h5.1v11.7h12.7V105h5.1V132.1z"/>
<path fill="#D9DADC" d="M171.7,118.5c0,1.9-0.3,3.8-1,5.5c-0.6,1.6-1.6,3.1-2.8,4.4c-1.2,1.3-2.7,2.2-4.3,2.9
	c-3.6,1.4-7.6,1.4-11.2,0c-1.6-0.7-3.1-1.6-4.4-2.9c-1.2-1.3-2.2-2.8-2.8-4.4c-1.3-3.5-1.3-7.5,0-11c0.6-1.6,1.6-3.1,2.8-4.4
	c1.2-1.3,2.7-2.2,4.4-2.9c1.8-0.7,3.7-1,5.6-1c1.9,0,3.8,0.3,5.6,1.1c1.6,0.7,3.1,1.6,4.3,2.9c1.2,1.3,2.2,2.8,2.8,4.4
	C171.4,114.8,171.7,116.7,171.7,118.5z M166.5,118.5c0-1.4-0.2-2.7-0.6-4c-0.4-1.1-0.9-2.1-1.7-3c-0.7-0.8-1.7-1.5-2.7-1.9
	c-2.3-0.9-4.9-0.9-7.2,0c-1,0.4-2,1.1-2.7,1.9c-0.8,0.9-1.4,1.9-1.7,3c-0.8,2.6-0.8,5.4,0,8c0.4,1.1,0.9,2.1,1.7,3
	c0.8,0.8,1.7,1.5,2.7,1.9c2.3,0.9,4.9,0.9,7.2,0c1-0.4,1.9-1.1,2.7-1.9c0.8-0.9,1.3-1.9,1.7-3C166.4,121.2,166.6,119.9,166.5,118.5
	L166.5,118.5z"/>
<path fill="#D9DADC" d="M200.2,118.5c0,1.9-0.3,3.8-1,5.5c-0.6,1.6-1.6,3.1-2.8,4.4c-1.2,1.3-2.7,2.2-4.3,2.9
	c-3.6,1.4-7.6,1.4-11.2,0c-1.6-0.7-3.1-1.6-4.4-2.9c-1.2-1.3-2.2-2.8-2.8-4.4c-1.3-3.5-1.3-7.5,0-11c0.6-1.6,1.6-3.1,2.8-4.4
	c1.2-1.3,2.7-2.2,4.4-2.9c1.8-0.7,3.7-1,5.6-1c1.9,0,3.8,0.3,5.6,1.1c1.6,0.7,3.1,1.6,4.3,2.9c1.2,1.3,2.2,2.8,2.8,4.4
	C199.9,114.8,200.2,116.7,200.2,118.5z M195,118.5c0-1.4-0.2-2.7-0.6-4c-0.4-1.1-0.9-2.1-1.7-3c-0.7-0.8-1.7-1.5-2.7-1.9
	c-2.3-0.9-4.9-0.9-7.2,0c-1,0.4-2,1.1-2.7,1.9c-0.8,0.9-1.4,1.9-1.7,3c-0.8,2.6-0.8,5.4,0,8c0.4,1.1,0.9,2.1,1.7,3
	c0.8,0.8,1.7,1.5,2.7,1.9c2.3,0.9,4.9,0.9,7.2,0c1-0.4,1.9-1.1,2.7-1.9c0.8-0.9,1.3-1.9,1.7-3C194.8,121.2,195,119.9,195,118.5
	L195,118.5z"/>
<path fill="#D9DADC" d="M206.4,122.5v9.5h-5V105h8.8c1.6,0,3.2,0.2,4.7,0.6c1.2,0.4,2.3,1,3.3,1.8c0.8,0.7,1.5,1.7,1.9,2.7
	c0.9,2.3,0.9,4.8,0,7.1c-0.4,1.1-1.1,2-2,2.8c-1,0.8-2.1,1.5-3.3,1.8c-1.5,0.5-3,0.7-4.6,0.7L206.4,122.5z M206.4,118.6h3.8
	c0.8,0,1.6-0.1,2.4-0.3c0.6-0.2,1.2-0.5,1.7-1c0.5-0.4,0.8-1,1-1.6c0.2-0.7,0.3-1.4,0.3-2.1c0-0.7-0.1-1.4-0.3-2
	c-0.2-0.6-0.6-1.1-1-1.5c-0.5-0.4-1.1-0.8-1.7-0.9c-0.8-0.2-1.6-0.3-2.4-0.3h-3.8V118.6z"/>
</svg>
